<svg xmlns="http://www.w3.org/2000/svg" width="80.273" height="66.831" viewBox="0 0 80.273 66.831">
  <path id="Path_2655" data-name="Path 2655" d="M64.414,46.222A10.329,10.329,0,0,0,61.524,47.6c-3.141,1.759-4.648,1.131-7.663-.251-5.151-2.261-9.045-2.889-14.447.126-2.764,1.507-4.774,1.507-7.412,0a13.44,13.44,0,0,0-7.412-2.01,18.816,18.816,0,0,0-2.764.251c3.015-8.668,5.151-22.863-4.522-37.31a1.356,1.356,0,0,1,0-1.382A1.5,1.5,0,0,1,18.436,6.4C18.938,6.4,58.635,9.666,64.414,46.222ZM81.373,71.975a1.187,1.187,0,0,1-1.256,1.256,10.249,10.249,0,0,1-6.155-1.759c-3.266-1.884-6.407-1.884-9.924,0a12.019,12.019,0,0,1-12.311,0c-3.266-1.884-6.407-1.884-9.924,0a12.019,12.019,0,0,1-12.311,0,9.418,9.418,0,0,0-9.924,0,12.019,12.019,0,0,1-12.311,0,8.735,8.735,0,0,0-4.9-1.382A1.259,1.259,0,0,1,1.1,68.834a1.351,1.351,0,0,1,1.256-1.256,10.249,10.249,0,0,1,6.155,1.759,9.418,9.418,0,0,0,9.924,0c4.146-2.261,8.165-2.387,12.311,0a9.417,9.417,0,0,0,9.924,0,11.74,11.74,0,0,1,12.311,0,9.418,9.418,0,0,0,9.924,0,11.478,11.478,0,0,1,12.311,0,8.735,8.735,0,0,0,4.9,1.382A1.187,1.187,0,0,1,81.373,71.975Zm0-9.8a1.259,1.259,0,0,1-1.256,1.256,10.249,10.249,0,0,1-6.155-1.759,9.417,9.417,0,0,0-9.924,0c-4.146,2.261-8.165,2.387-12.311,0a9.417,9.417,0,0,0-9.924,0c-4.146,2.261-8.165,2.387-12.311,0a9.418,9.418,0,0,0-9.924,0,11.74,11.74,0,0,1-12.311,0,8.735,8.735,0,0,0-4.9-1.382A1.351,1.351,0,0,1,1.1,59.036a1.259,1.259,0,0,1,1.256-1.256,10.249,10.249,0,0,1,6.155,1.759,9.418,9.418,0,0,0,9.924,0,12.019,12.019,0,0,1,12.311,0,9.417,9.417,0,0,0,9.924,0,11.74,11.74,0,0,1,12.311,0,9.418,9.418,0,0,0,9.924,0,11.738,11.738,0,0,1,12.311,0,8.735,8.735,0,0,0,4.9,1.382A1.187,1.187,0,0,1,81.373,62.176Z" transform="translate(-1.1 -6.4)"/>
</svg>
